<mxfile host="app.diagrams.net" agent="Mozilla/5.0 (Windows NT 10.0; Win64; x64; rv:135.0) Gecko/20100101 Firefox/135.0" version="26.0.16">
  <diagram name="Page-1" id="TAsjJS8AXUFp7ytjg5lY">
    <mxGraphModel dx="1434" dy="782" grid="1" gridSize="10" guides="1" tooltips="1" connect="1" arrows="1" fold="1" page="1" pageScale="1" pageWidth="850" pageHeight="1100" math="0" shadow="0">
      <root>
        <mxCell id="0" />
        <mxCell id="1" parent="0" />
        <mxCell id="Urd4TLbNv9O9O64cv0Xt-29" style="rounded=0;orthogonalLoop=1;jettySize=auto;html=1;exitX=1;exitY=1;exitDx=0;exitDy=0;exitPerimeter=0;entryX=0;entryY=0.5;entryDx=0;entryDy=0;" edge="1" parent="1" source="Urd4TLbNv9O9O64cv0Xt-6" target="Urd4TLbNv9O9O64cv0Xt-28">
          <mxGeometry relative="1" as="geometry" />
        </mxCell>
        <mxCell id="Urd4TLbNv9O9O64cv0Xt-6" value="Cliente" style="shape=umlActor;verticalLabelPosition=bottom;verticalAlign=top;html=1;" vertex="1" parent="1">
          <mxGeometry x="40" y="280" width="30" height="60" as="geometry" />
        </mxCell>
        <mxCell id="Urd4TLbNv9O9O64cv0Xt-8" value="&lt;h5&gt;fazer login&lt;/h5&gt;" style="ellipse;shape=umlEntity;whiteSpace=wrap;html=1;" vertex="1" parent="1">
          <mxGeometry x="155" y="280" width="170" height="110" as="geometry" />
        </mxCell>
        <mxCell id="Urd4TLbNv9O9O64cv0Xt-12" value="" style="line;strokeWidth=1;fillColor=none;align=left;verticalAlign=middle;spacingTop=-1;spacingLeft=3;spacingRight=3;rotatable=0;labelPosition=right;points=[];portConstraint=eastwest;strokeColor=inherit;" vertex="1" parent="1">
          <mxGeometry x="155" y="346" width="170" height="8" as="geometry" />
        </mxCell>
        <mxCell id="Urd4TLbNv9O9O64cv0Xt-13" value="fazer cadastro" style="text;html=1;align=center;verticalAlign=middle;whiteSpace=wrap;rounded=0;" vertex="1" parent="1">
          <mxGeometry x="210" y="360" width="60" height="30" as="geometry" />
        </mxCell>
        <mxCell id="Urd4TLbNv9O9O64cv0Xt-17" style="rounded=0;orthogonalLoop=1;jettySize=auto;html=1;exitX=1;exitY=0.3333333333333333;exitDx=0;exitDy=0;exitPerimeter=0;entryX=0.035;entryY=0.382;entryDx=0;entryDy=0;entryPerimeter=0;" edge="1" parent="1" source="Urd4TLbNv9O9O64cv0Xt-6" target="Urd4TLbNv9O9O64cv0Xt-8">
          <mxGeometry relative="1" as="geometry" />
        </mxCell>
        <mxCell id="Urd4TLbNv9O9O64cv0Xt-18" value="Verificar login" style="ellipse;whiteSpace=wrap;html=1;" vertex="1" parent="1">
          <mxGeometry x="390" y="190" width="100" height="60" as="geometry" />
        </mxCell>
        <mxCell id="Urd4TLbNv9O9O64cv0Xt-19" style="rounded=0;orthogonalLoop=1;jettySize=auto;html=1;exitX=1;exitY=0;exitDx=0;exitDy=0;entryX=0.05;entryY=0.7;entryDx=0;entryDy=0;entryPerimeter=0;" edge="1" parent="1" source="Urd4TLbNv9O9O64cv0Xt-8" target="Urd4TLbNv9O9O64cv0Xt-18">
          <mxGeometry relative="1" as="geometry" />
        </mxCell>
        <mxCell id="Urd4TLbNv9O9O64cv0Xt-20" value="&amp;lt;&amp;lt;Include&amp;gt;&amp;gt;" style="text;html=1;align=center;verticalAlign=middle;whiteSpace=wrap;rounded=0;" vertex="1" parent="1">
          <mxGeometry x="310" y="250" width="60" height="30" as="geometry" />
        </mxCell>
        <mxCell id="Urd4TLbNv9O9O64cv0Xt-22" value="Fazer Cadastro" style="ellipse;whiteSpace=wrap;html=1;" vertex="1" parent="1">
          <mxGeometry x="395" y="300" width="90" height="60" as="geometry" />
        </mxCell>
        <mxCell id="Urd4TLbNv9O9O64cv0Xt-23" style="rounded=0;orthogonalLoop=1;jettySize=auto;html=1;exitX=0;exitY=0.5;exitDx=0;exitDy=0;entryX=0.976;entryY=0;entryDx=0;entryDy=0;entryPerimeter=0;" edge="1" parent="1" source="Urd4TLbNv9O9O64cv0Xt-24" target="Urd4TLbNv9O9O64cv0Xt-12">
          <mxGeometry relative="1" as="geometry" />
        </mxCell>
        <mxCell id="Urd4TLbNv9O9O64cv0Xt-27" style="rounded=0;orthogonalLoop=1;jettySize=auto;html=1;exitX=1;exitY=0.5;exitDx=0;exitDy=0;entryX=0.706;entryY=0.027;entryDx=0;entryDy=0;entryPerimeter=0;" edge="1" parent="1" source="Urd4TLbNv9O9O64cv0Xt-22">
          <mxGeometry relative="1" as="geometry">
            <mxPoint x="475.02" y="362.97" as="targetPoint" />
          </mxGeometry>
        </mxCell>
        <mxCell id="Urd4TLbNv9O9O64cv0Xt-42" style="rounded=0;orthogonalLoop=1;jettySize=auto;html=1;exitX=1;exitY=0.5;exitDx=0;exitDy=0;entryX=0;entryY=0.5;entryDx=0;entryDy=0;" edge="1" parent="1" source="Urd4TLbNv9O9O64cv0Xt-28" target="Urd4TLbNv9O9O64cv0Xt-40">
          <mxGeometry relative="1" as="geometry" />
        </mxCell>
        <mxCell id="Urd4TLbNv9O9O64cv0Xt-28" value="Adicionar Produtos ao carrinho" style="ellipse;whiteSpace=wrap;html=1;" vertex="1" parent="1">
          <mxGeometry x="130" y="180" width="140" height="70" as="geometry" />
        </mxCell>
        <mxCell id="Urd4TLbNv9O9O64cv0Xt-35" style="rounded=0;orthogonalLoop=1;jettySize=auto;html=1;exitX=1;exitY=0.3333333333333333;exitDx=0;exitDy=0;exitPerimeter=0;entryX=0;entryY=0.5;entryDx=0;entryDy=0;" edge="1" parent="1" source="Urd4TLbNv9O9O64cv0Xt-30" target="Urd4TLbNv9O9O64cv0Xt-31">
          <mxGeometry relative="1" as="geometry" />
        </mxCell>
        <mxCell id="Urd4TLbNv9O9O64cv0Xt-30" value="Visitante" style="shape=umlActor;verticalLabelPosition=bottom;verticalAlign=top;html=1;outlineConnect=0;" vertex="1" parent="1">
          <mxGeometry x="40" y="80" width="30" height="60" as="geometry" />
        </mxCell>
        <mxCell id="Urd4TLbNv9O9O64cv0Xt-33" value="" style="edgeStyle=orthogonalEdgeStyle;rounded=0;orthogonalLoop=1;jettySize=auto;html=1;" edge="1" parent="1" source="Urd4TLbNv9O9O64cv0Xt-31" target="Urd4TLbNv9O9O64cv0Xt-32">
          <mxGeometry relative="1" as="geometry" />
        </mxCell>
        <mxCell id="Urd4TLbNv9O9O64cv0Xt-31" value="Navegar pelo catalogo" style="ellipse;whiteSpace=wrap;html=1;" vertex="1" parent="1">
          <mxGeometry x="170" y="50" width="120" height="80" as="geometry" />
        </mxCell>
        <mxCell id="Urd4TLbNv9O9O64cv0Xt-32" value="Pesquisar produto" style="ellipse;whiteSpace=wrap;html=1;" vertex="1" parent="1">
          <mxGeometry x="370" y="50" width="120" height="80" as="geometry" />
        </mxCell>
        <mxCell id="Urd4TLbNv9O9O64cv0Xt-38" value="" style="rounded=0;orthogonalLoop=1;jettySize=auto;html=1;exitX=0;exitY=1;exitDx=0;exitDy=0;entryX=1;entryY=0;entryDx=0;entryDy=0;" edge="1" parent="1" source="Urd4TLbNv9O9O64cv0Xt-32" target="Urd4TLbNv9O9O64cv0Xt-28">
          <mxGeometry relative="1" as="geometry">
            <mxPoint x="388" y="118" as="sourcePoint" />
            <mxPoint x="260" y="190" as="targetPoint" />
          </mxGeometry>
        </mxCell>
        <mxCell id="Urd4TLbNv9O9O64cv0Xt-39" value="" style="rounded=0;orthogonalLoop=1;jettySize=auto;html=1;exitX=0;exitY=0.5;exitDx=0;exitDy=0;entryX=0.976;entryY=0;entryDx=0;entryDy=0;entryPerimeter=0;" edge="1" parent="1" source="Urd4TLbNv9O9O64cv0Xt-22" target="Urd4TLbNv9O9O64cv0Xt-24">
          <mxGeometry relative="1" as="geometry">
            <mxPoint x="395" y="330" as="sourcePoint" />
            <mxPoint x="321" y="346" as="targetPoint" />
          </mxGeometry>
        </mxCell>
        <mxCell id="Urd4TLbNv9O9O64cv0Xt-24" value="&amp;lt;&amp;lt;Extends&amp;gt;&amp;gt;" style="text;html=1;align=center;verticalAlign=middle;whiteSpace=wrap;rounded=0;rotation=45;" vertex="1" parent="1">
          <mxGeometry x="330" y="320" width="60" height="30" as="geometry" />
        </mxCell>
        <mxCell id="Urd4TLbNv9O9O64cv0Xt-46" style="edgeStyle=none;rounded=0;orthogonalLoop=1;jettySize=auto;html=1;exitX=0.5;exitY=1;exitDx=0;exitDy=0;" edge="1" parent="1" source="Urd4TLbNv9O9O64cv0Xt-37" target="Urd4TLbNv9O9O64cv0Xt-44">
          <mxGeometry relative="1" as="geometry" />
        </mxCell>
        <mxCell id="Urd4TLbNv9O9O64cv0Xt-47" style="edgeStyle=none;rounded=0;orthogonalLoop=1;jettySize=auto;html=1;exitX=1;exitY=1;exitDx=0;exitDy=0;entryX=0;entryY=0;entryDx=0;entryDy=0;" edge="1" parent="1" source="Urd4TLbNv9O9O64cv0Xt-40" target="Urd4TLbNv9O9O64cv0Xt-41">
          <mxGeometry relative="1" as="geometry" />
        </mxCell>
        <mxCell id="Urd4TLbNv9O9O64cv0Xt-40" value="Efetuar Pedidos" style="ellipse;whiteSpace=wrap;html=1;" vertex="1" parent="1">
          <mxGeometry x="530" y="100" width="140" height="70" as="geometry" />
        </mxCell>
        <mxCell id="Urd4TLbNv9O9O64cv0Xt-48" style="edgeStyle=none;rounded=0;orthogonalLoop=1;jettySize=auto;html=1;exitX=0.5;exitY=0;exitDx=0;exitDy=0;" edge="1" parent="1" source="Urd4TLbNv9O9O64cv0Xt-41" target="Urd4TLbNv9O9O64cv0Xt-43">
          <mxGeometry relative="1" as="geometry" />
        </mxCell>
        <mxCell id="Urd4TLbNv9O9O64cv0Xt-41" value="Acompanhar entrega" style="ellipse;whiteSpace=wrap;html=1;" vertex="1" parent="1">
          <mxGeometry x="650" y="160" width="140" height="70" as="geometry" />
        </mxCell>
        <mxCell id="Urd4TLbNv9O9O64cv0Xt-43" value="Avaliar produtos" style="ellipse;whiteSpace=wrap;html=1;" vertex="1" parent="1">
          <mxGeometry x="690" y="40" width="140" height="70" as="geometry" />
        </mxCell>
        <mxCell id="Urd4TLbNv9O9O64cv0Xt-44" value="Sistem,De pagamentos" style="ellipse;whiteSpace=wrap;html=1;" vertex="1" parent="1">
          <mxGeometry x="670" y="460" width="140" height="70" as="geometry" />
        </mxCell>
        <mxCell id="Urd4TLbNv9O9O64cv0Xt-45" style="edgeStyle=none;rounded=0;orthogonalLoop=1;jettySize=auto;html=1;exitX=0.5;exitY=1;exitDx=0;exitDy=0;entryX=0.55;entryY=1.029;entryDx=0;entryDy=0;entryPerimeter=0;" edge="1" parent="1" source="Urd4TLbNv9O9O64cv0Xt-41" target="Urd4TLbNv9O9O64cv0Xt-41">
          <mxGeometry relative="1" as="geometry" />
        </mxCell>
        <mxCell id="Urd4TLbNv9O9O64cv0Xt-59" style="edgeStyle=none;rounded=0;orthogonalLoop=1;jettySize=auto;html=1;exitX=1;exitY=1;exitDx=0;exitDy=0;exitPerimeter=0;entryX=0;entryY=0.5;entryDx=0;entryDy=0;" edge="1" parent="1" source="Urd4TLbNv9O9O64cv0Xt-49" target="Urd4TLbNv9O9O64cv0Xt-54">
          <mxGeometry relative="1" as="geometry" />
        </mxCell>
        <mxCell id="Urd4TLbNv9O9O64cv0Xt-60" style="edgeStyle=none;rounded=0;orthogonalLoop=1;jettySize=auto;html=1;exitX=0.5;exitY=0.5;exitDx=0;exitDy=0;exitPerimeter=0;" edge="1" parent="1" source="Urd4TLbNv9O9O64cv0Xt-49" target="Urd4TLbNv9O9O64cv0Xt-53">
          <mxGeometry relative="1" as="geometry" />
        </mxCell>
        <mxCell id="Urd4TLbNv9O9O64cv0Xt-61" style="edgeStyle=none;rounded=0;orthogonalLoop=1;jettySize=auto;html=1;exitX=0.75;exitY=0.1;exitDx=0;exitDy=0;exitPerimeter=0;" edge="1" parent="1" source="Urd4TLbNv9O9O64cv0Xt-49" target="Urd4TLbNv9O9O64cv0Xt-52">
          <mxGeometry relative="1" as="geometry" />
        </mxCell>
        <mxCell id="Urd4TLbNv9O9O64cv0Xt-49" value="Administrador" style="shape=umlActor;verticalLabelPosition=bottom;verticalAlign=top;html=1;" vertex="1" parent="1">
          <mxGeometry x="30" y="520" width="30" height="60" as="geometry" />
        </mxCell>
        <mxCell id="Urd4TLbNv9O9O64cv0Xt-50" value="" style="edgeStyle=none;rounded=0;orthogonalLoop=1;jettySize=auto;html=1;exitX=0.5;exitY=1;exitDx=0;exitDy=0;" edge="1" parent="1" source="Urd4TLbNv9O9O64cv0Xt-40" target="Urd4TLbNv9O9O64cv0Xt-37">
          <mxGeometry relative="1" as="geometry">
            <mxPoint x="600" y="170" as="sourcePoint" />
            <mxPoint x="725" y="461" as="targetPoint" />
          </mxGeometry>
        </mxCell>
        <mxCell id="Urd4TLbNv9O9O64cv0Xt-37" value="&amp;lt;&amp;lt;Include&amp;gt;&amp;gt;" style="text;html=1;align=center;verticalAlign=middle;whiteSpace=wrap;rounded=0;" vertex="1" parent="1">
          <mxGeometry x="640" y="300" width="60" height="30" as="geometry" />
        </mxCell>
        <mxCell id="Urd4TLbNv9O9O64cv0Xt-51" value="Processar Pagamentos" style="ellipse;whiteSpace=wrap;html=1;" vertex="1" parent="1">
          <mxGeometry x="690" y="560" width="140" height="70" as="geometry" />
        </mxCell>
        <mxCell id="Urd4TLbNv9O9O64cv0Xt-52" value="Cadastrar Produtos" style="ellipse;whiteSpace=wrap;html=1;" vertex="1" parent="1">
          <mxGeometry x="150" y="460" width="140" height="70" as="geometry" />
        </mxCell>
        <mxCell id="Urd4TLbNv9O9O64cv0Xt-53" value="Gerenciar Categorias" style="ellipse;whiteSpace=wrap;html=1;" vertex="1" parent="1">
          <mxGeometry x="150" y="540" width="140" height="70" as="geometry" />
        </mxCell>
        <mxCell id="Urd4TLbNv9O9O64cv0Xt-54" value="processar pedidos" style="ellipse;whiteSpace=wrap;html=1;" vertex="1" parent="1">
          <mxGeometry x="150" y="630" width="140" height="70" as="geometry" />
        </mxCell>
        <mxCell id="Urd4TLbNv9O9O64cv0Xt-55" value="Gerar relatorios de vendas" style="ellipse;whiteSpace=wrap;html=1;" vertex="1" parent="1">
          <mxGeometry x="340" y="680" width="140" height="70" as="geometry" />
        </mxCell>
        <mxCell id="Urd4TLbNv9O9O64cv0Xt-57" style="edgeStyle=none;rounded=0;orthogonalLoop=1;jettySize=auto;html=1;exitX=0;exitY=0;exitDx=0;exitDy=0;entryX=1;entryY=0.5;entryDx=0;entryDy=0;" edge="1" parent="1" source="Urd4TLbNv9O9O64cv0Xt-56" target="Urd4TLbNv9O9O64cv0Xt-52">
          <mxGeometry relative="1" as="geometry" />
        </mxCell>
        <mxCell id="Urd4TLbNv9O9O64cv0Xt-56" value="Atualizar produto" style="ellipse;whiteSpace=wrap;html=1;" vertex="1" parent="1">
          <mxGeometry x="355" y="500" width="140" height="70" as="geometry" />
        </mxCell>
        <mxCell id="Urd4TLbNv9O9O64cv0Xt-58" style="edgeStyle=none;rounded=0;orthogonalLoop=1;jettySize=auto;html=1;exitX=0;exitY=0;exitDx=0;exitDy=0;entryX=0.964;entryY=0.643;entryDx=0;entryDy=0;entryPerimeter=0;" edge="1" parent="1" source="Urd4TLbNv9O9O64cv0Xt-55" target="Urd4TLbNv9O9O64cv0Xt-54">
          <mxGeometry relative="1" as="geometry" />
        </mxCell>
        <mxCell id="Urd4TLbNv9O9O64cv0Xt-63" style="edgeStyle=none;rounded=0;orthogonalLoop=1;jettySize=auto;html=1;exitX=0;exitY=0.5;exitDx=0;exitDy=0;entryX=1.007;entryY=0.371;entryDx=0;entryDy=0;entryPerimeter=0;" edge="1" parent="1" source="Urd4TLbNv9O9O64cv0Xt-51" target="Urd4TLbNv9O9O64cv0Xt-54">
          <mxGeometry relative="1" as="geometry" />
        </mxCell>
        <mxCell id="Urd4TLbNv9O9O64cv0Xt-65" value="&amp;lt;&amp;lt;Extends&amp;gt;&amp;gt;" style="text;html=1;align=center;verticalAlign=middle;whiteSpace=wrap;rounded=0;rotation=-15;" vertex="1" parent="1">
          <mxGeometry x="510" y="590" width="60" height="30" as="geometry" />
        </mxCell>
        <mxCell id="Urd4TLbNv9O9O64cv0Xt-66" style="edgeStyle=none;rounded=0;orthogonalLoop=1;jettySize=auto;html=1;entryX=0.75;entryY=0;entryDx=0;entryDy=0;" edge="1" parent="1" source="Urd4TLbNv9O9O64cv0Xt-65" target="Urd4TLbNv9O9O64cv0Xt-65">
          <mxGeometry relative="1" as="geometry" />
        </mxCell>
        <mxCell id="Urd4TLbNv9O9O64cv0Xt-67" value="&amp;lt;&amp;lt;Extends&amp;gt;&amp;gt;" style="text;html=1;align=center;verticalAlign=middle;whiteSpace=wrap;rounded=0;rotation=-15;" vertex="1" parent="1">
          <mxGeometry x="320" y="660" width="60" height="30" as="geometry" />
        </mxCell>
        <mxCell id="Urd4TLbNv9O9O64cv0Xt-69" value="&amp;lt;&amp;lt;Extends&amp;gt;&amp;gt;" style="text;html=1;align=center;verticalAlign=middle;whiteSpace=wrap;rounded=0;rotation=15;" vertex="1" parent="1">
          <mxGeometry x="320" y="470" width="60" height="30" as="geometry" />
        </mxCell>
        <mxCell id="Urd4TLbNv9O9O64cv0Xt-70" value="Cliente pode optar por fazer o cadastro" style="shape=note;size=20;whiteSpace=wrap;html=1;" vertex="1" parent="1">
          <mxGeometry x="390" y="360" width="60" height="80" as="geometry" />
        </mxCell>
        <mxCell id="Urd4TLbNv9O9O64cv0Xt-71" value="Cliente pode ultilizar todos os recusrsos do visitante" style="shape=note;size=20;whiteSpace=wrap;html=1;" vertex="1" parent="1">
          <mxGeometry x="40" y="180" width="85" height="70" as="geometry" />
        </mxCell>
      </root>
    </mxGraphModel>
  </diagram>
</mxfile>
